# xmcd
#
# Track frame offsets: 
#        150
#        15404
#        30260
#        54236
#        67008
#        87017
#        101372
#        117848
#        132990
#        151672
#        180628
#        194330
#        213545
#        229714
#        245883
#        261415
#
# Disc length: 3672 seconds
#
# Revision: 0
# Processed by: cddbd v1.5.2PL0 Copyright (c) Steve Scherf et al.
# Submitted via: ExactAudioCopy v1.0b1
#
DISCID=cf0e5610
DTITLE=Alabama - Mountain Music (The Best Of Alabama)
DYEAR=2009
DGENRE=Country/Rock
TTITLE0=If You're Gonna Play In Texas (You Gotta Have A Fiddle In The 
TTITLE0=Band)
TTITLE1=Born County
TTITLE2=Dixieland Delight
TTITLE3=I'm In A Hurry (And Don't Know Why)
TTITLE4=Roll On (Eighteen Wheeler)
TTITLE5=Song Of The South
TTITLE6=Mountain Music
TTITLE7=Forty Hour Week (For A Livin')
TTITLE8=Angels Among
TTITLE9=My Home's In Alabama
TTITLE10=Tennessee River
TTITLE11=You've Got The Touch
TTITLE12=She And I
TTITLE13=Feels So Right
TTITLE14=Down Home
TTITLE15=Southern Star
EXTD=
EXTT0=
EXTT1=
EXTT2=
EXTT3=
EXTT4=
EXTT5=
EXTT6=
EXTT7=
EXTT8=
EXTT9=
EXTT10=
EXTT11=
EXTT12=
EXTT13=
EXTT14=
EXTT15=
PLAYORDER=
